<?xml version="1.0" standalone="no"?>
<!DOCTYPE svg PUBLIC "-//W3C//DTD SVG 20010904//EN"
 "http://www.w3.org/TR/2001/REC-SVG-20010904/DTD/svg10.dtd">
<svg version="1.0" xmlns="http://www.w3.org/2000/svg"
 width="200.000000pt" height="200.000000pt" viewBox="0 0 200.000000 200.000000"
 preserveAspectRatio="xMidYMid meet">
<metadata>
Created by potrace 1.11, written by Peter Selinger 2001-2013
</metadata>
<g transform="translate(0.000000,200.000000) scale(0.100000,-0.100000)"
fill="#000000" stroke="none">
<path d="M1243 1543 c-19 -7 -16 -35 10 -84 13 -24 74 -141 135 -259 l111
-215 -23 -40 c-61 -108 -246 -477 -246 -489 0 -8 4 -18 10 -21 19 -12 202 -6
222 7 10 7 66 105 124 218 58 113 119 229 135 259 16 30 29 60 29 67 0 11
-112 234 -227 452 -61 115 -57 112 -170 111 -54 0 -104 -3 -110 -6z"/>
<path d="M539 1522 c-11 -7 -34 -42 -52 -77 -18 -35 -79 -156 -136 -268 l-105
-203 51 -100 c29 -54 86 -164 128 -244 42 -80 81 -157 86 -172 14 -36 29 -41
134 -43 64 -2 97 2 113 12 l22 14 -89 172 c-49 95 -112 214 -139 266 l-50 94
63 121 c224 433 217 417 193 432 -22 14 -198 11 -219 -4z"/>
</g>
</svg>
